<?xml version="1.0" encoding="UTF-8"?>
<!DOCTYPE svg PUBLIC "-//W3C//DTD SVG 1.1//EN" "http://www.w3.org/Graphics/SVG/1.1/DTD/svg11.dtd">
<!-- Creator: CorelDRAW X7 -->
<svg xmlns="http://www.w3.org/2000/svg" xml:space="preserve" width="16.9332mm" height="16.9332mm" version="1.1" style="shape-rendering:geometricPrecision; text-rendering:geometricPrecision; image-rendering:optimizeQuality; fill-rule:evenodd; clip-rule:evenodd"
viewBox="0 0 1693 1693"
 xmlns:xlink="http://www.w3.org/1999/xlink">
 <defs>
  <style type="text/css">
   <![CDATA[
    .fil1 {fill:#00B5EF}
    .fil2 {fill:url(#id0)}
    .fil0 {fill:url(#id1);fill-rule:nonzero}
   ]]>
  </style>
  <linearGradient id="id0" gradientUnits="userSpaceOnUse" x1="45.66" y1="577.05" x2="528.16" y2="555.69">
   <stop offset="0" style="stop-opacity:1; stop-color:#4DB5E3"/>
   <stop offset="1" style="stop-opacity:1; stop-color:#828BD9"/>
  </linearGradient>
  <linearGradient id="id1" gradientUnits="userSpaceOnUse" x1="687.16" y1="1156.62" x2="1395.28" y2="625.54">
   <stop offset="0" style="stop-opacity:1; stop-color:#4BB5E3"/>
   <stop offset="0.490196" style="stop-opacity:1; stop-color:#8AB2E6"/>
   <stop offset="1" style="stop-opacity:1; stop-color:#8080D6"/>
  </linearGradient>
 </defs>
 <g id="图层_x0020_1">
  <metadata id="CorelCorpID_0Corel-Layer"/>
  <g id="_2285847778832">
   <path class="fil0" d="M414 736l31 0 0 131 106 0 0 -131 31 0 0 310 -31 0 0 -139 -106 0 0 139 -31 0 0 -310zm227 0l31 0 0 310 -31 0 0 -310zm90 0l31 0 104 231 1 0 0 -231 31 0 0 310 -30 0 -105 -233 -1 0 0 233 -31 0 0 -310zm354 0l39 0 -89 133 102 177 -41 0 -82 -146 -27 39 0 107 -31 0 0 -310 31 0 0 150 98 -150zm91 0l31 0 0 310 -31 0 0 -310zm90 0l31 0 104 231 1 0 0 -231 31 0 0 310 -30 0 -105 -233 -1 0 0 233 -31 0 0 -310zm313 -6c26,0 46,9 61,27 15,17 24,43 27,78l-31 0c-3,-21 -9,-37 -18,-47 -10,-11 -23,-16 -39,-16 -20,0 -35,10 -47,31 -12,21 -18,51 -18,89 0,38 5,67 17,86 11,22 30,33 55,33 10,0 19,-2 28,-6 8,-3 16,-8 23,-15l0 -67 -56 0 0 -41 87 0 0 131c-10,12 -22,22 -37,29 -14,7 -30,10 -48,10 -32,0 -57,-15 -75,-47 -17,-29 -25,-66 -25,-113 0,-46 8,-84 25,-114 17,-32 41,-48 71,-48z"/>
   <path class="fil1" d="M243 565l60 0c11,0 20,9 20,20l0 539 -50 59 -50 -59 0 -539c0,-11 9,-20 20,-20zm31 604l13 -22 13 -23 -26 0 -27 0 13 23 14 22zm-16 -574l30 0c5,0 10,8 10,18l0 495 -49 0 0 -495c0,-10 4,-18 9,-18z"/>
   <rect class="fil1" x="263" y="738" width="19.895" height="183.476" rx="13" ry="13"/>
   <polygon class="fil2" points="289,633 155,604 21,576 153,538 285,500 419,528 553,557 421,595 "/>
  </g>
 </g>
</svg>
